<?xml version="1.0" encoding="utf-8"?>
<!-- Generator: Adobe Illustrator 17.0.0, SVG Export Plug-In . SVG Version: 6.00 Build 0)  -->
<!DOCTYPE svg PUBLIC "-//W3C//DTD SVG 1.1//EN" "http://www.w3.org/Graphics/SVG/1.1/DTD/svg11.dtd">
<svg version="1.1" id="Layer_1" xmlns="http://www.w3.org/2000/svg" xmlns:xlink="http://www.w3.org/1999/xlink" x="0px" y="0px"
	 width="1000px" height="750px" viewBox="0 0 1000 750" enable-background="new 0 0 1000 750" xml:space="preserve">
<g>
	<path d="M449.585,213.204c-5.851-5.855-15.346-5.855-21.2,0c-5.854,5.854-5.854,15.345,0,21.2l138.207,138.207L425.607,513.596
		c-5.854,5.855-5.854,15.346,0,21.2c2.927,2.927,6.763,4.391,10.601,4.391c3.835,0,7.673-1.464,10.601-4.391l151.583-151.585
		c2.928-2.927,4.392-6.764,4.392-10.6s-1.464-7.673-4.393-10.6L449.585,213.204z"/>
	<path d="M500,74c-165.419,0-300,134.578-300,300s134.581,300,300,300s300-134.578,300-300S665.419,74,500,74z M500,649
		c-151.633,0-275-123.364-275-275S348.367,99,500,99s275,123.364,275,275S651.633,649,500,649z"/>
</g>
</svg>
