<?xml version="1.0" encoding="utf-8"?>
<!-- Generator: Adobe Illustrator 18.1.1, SVG Export Plug-In . SVG Version: 6.00 Build 0)  -->
<!DOCTYPE svg PUBLIC "-//W3C//DTD SVG 1.1//EN" "http://www.w3.org/Graphics/SVG/1.1/DTD/svg11.dtd">
<svg version="1.1" id="Layer_1" xmlns="http://www.w3.org/2000/svg" xmlns:xlink="http://www.w3.org/1999/xlink" x="0px" y="0px"
	 viewBox="0 0 1000 750" enable-background="new 0 0 1000 750" xml:space="preserve">
<g>
	<g>
		<path fill="#010101" d="M480.8,627.4c-6.9,0-13.7-2.2-19.4-6.6L290.6,490.3l-125.5-26c-14.9-3.1-25.5-16.2-25.5-31.3V325.6
			c0-15.1,10.5-28.1,25.2-31.3l125.4-27l170.7-135.8c9.6-7.6,22.7-9.1,33.8-3.8c11.1,5.3,18.1,16.5,18.1,28.8v438.9
			c0,12.2-6.9,23.3-17.8,28.7C490.5,626.4,485.6,627.4,480.8,627.4z M203.5,406.9l107.2,22.2c4.7,1,9.1,3,13,5.9l125.1,95.7V222.9
			L324.2,322c-3.9,3.1-8.4,5.2-13.2,6.2l-107.5,23.2L203.5,406.9L203.5,406.9z"/>
	</g>
	<g>
		<path fill="#010101" d="M617.2,547.8c-0.4,0-0.8,0-1.2,0c-9.7-0.6-17.5-8-18.7-17.6l-14.9-124.8l-0.7,3.1
			c-2,9.2-10.1,15.7-19.5,15.7h-29v-40h12.9l22.5-103.7c2.1-9.5,10.6-16.2,20.5-15.7c9.8,0.5,17.7,7.9,18.9,17.6l15.7,131.8l3-12.5
			c1.8-7.6,7.9-13.4,15.5-15c7.6-1.5,15.5,1.5,20.1,7.8l8.7,12l19.9-76.4c2-7.8,8.6-13.6,16.6-14.8c8-1.2,15.9,2.7,20,9.6l46,77.9
			l86-1.8l0.9,40l-97.7,2.1c-7.6,0.1-14-3.6-17.6-9.8l-27.5-46.5l-18.4,70.8c-1.9,7.5-8,13.2-15.6,14.6c-7.6,1.5-15.3-1.6-19.9-7.9
			l-8.1-11.1l-18.9,79.3C634.5,541.5,626.4,547.8,617.2,547.8z"/>
	</g>
</g>
</svg>
