<?xml version="1.0" encoding="utf-8"?>
<!-- Generator: Adobe Illustrator 17.0.2, SVG Export Plug-In . SVG Version: 6.00 Build 0)  -->
<!DOCTYPE svg PUBLIC "-//W3C//DTD SVG 1.1//EN" "http://www.w3.org/Graphics/SVG/1.1/DTD/svg11.dtd">
<svg version="1.1" id="Layer_3" xmlns="http://www.w3.org/2000/svg" xmlns:xlink="http://www.w3.org/1999/xlink" x="0px" y="0px"
	 width="95px" height="95px" viewBox="0 0 95 95" enable-background="new 0 0 95 95" xml:space="preserve">
<g>
	<g>
		<path d="M47.5,91.998c-24.536,0-44.498-19.962-44.498-44.498S22.964,3.002,47.5,3.002S91.998,22.964,91.998,47.5
			S72.036,91.998,47.5,91.998z M47.5,5.002C24.067,5.002,5.002,24.066,5.002,47.5S24.067,89.998,47.5,89.998
			c23.434,0,42.498-19.064,42.498-42.498S70.933,5.002,47.5,5.002z"/>
	</g>
</g>
<g>
	<g>
		<g>
			<path d="M46.291,63.331c-0.434,0-0.866-0.14-1.224-0.414l-10.75-8.222l-7.905-1.634c-0.935-0.193-1.606-1.017-1.606-1.972v-6.76
				c0-0.949,0.662-1.769,1.589-1.969l7.894-1.703l10.747-8.549c0.605-0.481,1.432-0.573,2.129-0.238
				c0.696,0.336,1.139,1.041,1.139,1.814v27.634c0,0.766-0.435,1.466-1.122,1.806C46.9,63.262,46.595,63.331,46.291,63.331z
				 M28.834,49.448l6.749,1.395c0.296,0.061,0.575,0.189,0.816,0.372l7.878,6.026V37.859l-7.848,6.243
				c-0.243,0.193-0.526,0.327-0.829,0.393l-6.766,1.459V49.448z"/>
		</g>
	</g>
	<g>
		<g>
			<path d="M54.881,58.316c-0.024,0-0.049-0.001-0.073-0.002c-0.609-0.035-1.105-0.502-1.177-1.107l-0.938-7.859l-0.043,0.196
				c-0.126,0.578-0.638,0.991-1.23,0.991h-1.827v-2.517h0.812l1.419-6.526c0.131-0.601,0.676-1.02,1.29-0.99
				c0.614,0.029,1.117,0.498,1.19,1.108l0.991,8.296l0.189-0.789c0.114-0.478,0.496-0.845,0.977-0.942
				c0.482-0.096,0.975,0.096,1.264,0.493l0.549,0.754l1.253-4.813c0.128-0.492,0.54-0.859,1.043-0.929
				c0.504-0.071,1,0.168,1.259,0.607l2.894,4.904l5.416-0.116l0.054,2.517l-6.153,0.132c-0.455,0.01-0.88-0.227-1.111-0.619
				l-1.73-2.931l-1.16,4.455c-0.123,0.471-0.505,0.829-0.983,0.919c-0.478,0.092-0.965-0.102-1.252-0.495l-0.507-0.696l-1.193,4.995
				C55.969,57.919,55.46,58.316,54.881,58.316z"/>
		</g>
	</g>
</g>
</svg>
