<?xml version="1.0" encoding="utf-8"?>
<!-- Generator: Adobe Illustrator 17.0.0, SVG Export Plug-In . SVG Version: 6.00 Build 0)  -->
<!DOCTYPE svg PUBLIC "-//W3C//DTD SVG 1.1//EN" "http://www.w3.org/Graphics/SVG/1.1/DTD/svg11.dtd">
<svg version="1.1" id="Layer_1" xmlns="http://www.w3.org/2000/svg" xmlns:xlink="http://www.w3.org/1999/xlink" x="0px" y="0px"
	 width="1000px" height="750px" viewBox="0 0 1000 750" enable-background="new 0 0 1000 750" xml:space="preserve">
<g>
	<path d="M698.656,566.149c-30.479,0-54.863,24.384-54.863,54.863c0,29.604,24.384,53.988,54.863,53.988
		s53.992-24.379,53.992-53.988C752.648,590.533,729.135,566.149,698.656,566.149z"/>
	<path d="M329.424,566.149c-29.608,0-53.992,24.384-53.992,54.863c0,29.604,24.383,53.988,53.992,53.988
		c31.35,0,54.863-24.379,54.863-53.988C384.287,590.533,360.774,566.149,329.424,566.149z"/>
	<path d="M759.615,155.988H366.004l-21.771-43.542C334.654,89.804,325.945,75,294.595,75h-61.83c-40.929,0-40.929,62.7,0,62.7
		h53.122L393.87,373.694l-30.479,22.642c-60.088,44.417-31.35,128.884,45.284,128.884H749.17c42.492,0,14.468-13.258-21.454-31.938
		l-312.074-24.667c-33.963,0-30.48-37.446-1.742-40.929l351.815-39.187c18.283-1.742,32.217-16.546,32.217-34.834V190.822
		C797.932,171.663,785.74,155.988,759.615,155.988z M388.642,204.755h95.792l19.158,59.217h-87.955L388.642,204.755z
		 M464.399,372.823l-35.704-77.5h82.73l22.642,70.538L464.399,372.823z M515.78,204.755h90.568l13.929,59.217h-86.209
		L515.78,204.755z M564.546,362.373l-21.771-67.05h82.73l17.417,59.217L564.546,362.373z M750.036,342.348l-78.376,7.838
		l-13.933-54.863h92.309L750.036,342.348z M750.036,263.972H650.76l-13.063-59.217h112.339V263.972z"/>
</g>
</svg>
