<?xml version="1.0" encoding="utf-8"?>
<!-- Generator: Adobe Illustrator 17.0.0, SVG Export Plug-In . SVG Version: 6.00 Build 0)  -->
<!DOCTYPE svg PUBLIC "-//W3C//DTD SVG 1.1//EN" "http://www.w3.org/Graphics/SVG/1.1/DTD/svg11.dtd">
<svg version="1.1" id="Layer_1" xmlns="http://www.w3.org/2000/svg" xmlns:xlink="http://www.w3.org/1999/xlink" x="0px" y="0px"
	 width="1000px" height="750px" viewBox="0 0 1000 750" enable-background="new 0 0 1000 750" xml:space="preserve">
<g>
	<path d="M541.015,522.657l-85.546,148.828c-72.657-10.948-133.409-44.326-182.227-100.196C224.409,515.44,200,450,200,375
		c0-52.334,12.89-101.552,38.672-147.656l121.875,213.281c12.49,25.782,31.24,46.875,56.25,63.282
		c24.995,16.406,52.734,24.609,83.203,24.609C514.062,528.516,527.724,526.573,541.015,522.657z M351.172,336.329L265.625,187.5
		c28.125-35.156,62.495-62.695,103.125-82.617C409.365,84.961,453.125,75,500,75c53.906,0,103.711,13.291,149.414,39.844
		c45.703,26.568,81.826,62.51,108.398,107.813H512.89c-3.916-0.772-8.203-1.172-12.89-1.172c-35.156,0-66.611,10.747-94.336,32.226
		C377.925,275.205,359.761,302.745,351.172,336.329z M423.242,451.758c-21.494-21.474-32.227-47.06-32.227-76.758
		c0-29.682,10.733-55.263,32.227-76.757c21.48-21.48,47.061-32.227,76.758-32.227c29.678,0,55.264,10.747,76.758,32.227
		c21.474,21.494,32.226,47.075,32.226,76.757c0,29.698-10.752,55.284-32.226,76.758c-21.494,21.494-47.08,32.227-76.758,32.227
		C470.303,483.985,444.722,473.252,423.242,451.758z M607.812,264.844h171.094C792.969,300,800,336.729,800,375
		c0,82.032-28.916,152.344-86.719,210.938C655.459,644.532,585.547,674.209,503.515,675l123.047-212.109
		c17.959-26.553,26.953-55.85,26.953-87.891C653.515,332.041,638.281,295.313,607.812,264.844z"/>
</g>
</svg>
