<?xml version="1.0" encoding="utf-8"?>
<!-- Generator: Adobe Illustrator 17.0.0, SVG Export Plug-In . SVG Version: 6.00 Build 0)  -->
<!DOCTYPE svg PUBLIC "-//W3C//DTD SVG 1.1//EN" "http://www.w3.org/Graphics/SVG/1.1/DTD/svg11.dtd">
<svg version="1.1" id="Layer_1" xmlns="http://www.w3.org/2000/svg" xmlns:xlink="http://www.w3.org/1999/xlink" x="0px" y="0px"
	 width="1000px" height="750px" viewBox="0 0 1000 750" enable-background="new 0 0 1000 750" xml:space="preserve">
<g>
	<path d="M843.778,468.423L566.255,63.995c-3.976-5.806-10.513-9.322-17.551-9.449c-7.095-0.283-13.717,3.147-17.9,8.809
		L176.087,542.471c-4.072-3.846-9.504-6.059-15.225-6.059c-4.529,0-8.895,1.369-12.626,3.959c-4.852,3.369-8.101,8.433-9.148,14.256
		c-1.048,5.825,0.233,11.707,3.602,16.555l76.264,110.717c4.135,5.95,10.937,9.503,18.194,9.504c0,0,0,0,0.001,0
		c4.527,0,8.893-1.371,12.634-3.971c4.053-2.846,6.977-6.812,8.454-11.471c1.503-4.74,2.635-10.134,0.603-15.373l11.093-3.541
		l101.755-28.128c17.39,35.306,53.511,58.291,93.557,58.351h0.162c57.506,0,104.362-46.786,104.45-104.294
		c0.005-2.921-0.121-5.838-0.358-8.741l262.154-72.499c6.785-1.871,12.238-6.895,14.657-13.525
		C848.7,481.598,847.779,474.229,843.778,468.423z M465.403,649.455H465.3c-23.042-0.036-44.09-12.005-56.13-30.906l12.665-3.505
		l89.414-24.739l20.745-5.718C531.047,620.505,501.53,649.455,465.403,649.455z M533.406,539.004l-155.999,43.127l-133.54,36.924
		l-7.66,2.117l-31.027-45.218l4.729-6.387l337.706-455.744l242.982,354.082L533.406,539.004z"/>
	<path d="M522.328,228.247c-8.092-6.258-19.761-4.766-26.027,3.343L308.545,473.337c-6.266,8.109-4.766,19.761,3.343,26.027
		c3.371,2.579,7.354,3.864,11.305,3.87c5.553,0.008,11.057-0.79,14.719-5.528l187.767-243.432
		C531.937,246.165,530.428,234.513,522.328,228.247z"/>
</g>
</svg>
