<?xml version="1.0" encoding="utf-8"?>
<!-- Generator: Adobe Illustrator 17.0.0, SVG Export Plug-In . SVG Version: 6.00 Build 0)  -->
<!DOCTYPE svg PUBLIC "-//W3C//DTD SVG 1.1//EN" "http://www.w3.org/Graphics/SVG/1.1/DTD/svg11.dtd">
<svg version="1.1" id="Layer_1" xmlns="http://www.w3.org/2000/svg" xmlns:xlink="http://www.w3.org/1999/xlink" x="0px" y="0px"
	 width="1000px" height="750px" viewBox="0 0 1000 750" enable-background="new 0 0 1000 750" xml:space="preserve">
<g>
	<ellipse cx="-1605.932" cy="337.026" rx="382.028" ry="270.703"/>
	<path d="M-1912.372,680.081c0,0,110.569-121.662,60.67-232.892c-38.963-86.852,66.471-19.618,66.471-19.618l175.868,101.982
		C-1609.362,529.553-1719.328,653.264-1912.372,680.081z"/>
</g>
<path d="M-551.864,63.97c-210.988,0-382.028,121.198-382.028,270.703c0,46.356,17.152,90.871,45.123,127.457
	c24.005,31.398,53.094,49.132,83.912,72.599c45.28,34.485-14.328,117.041-44.031,140.593c25.234,5.925,58.55-12.194,81.477-21.292
	c35.427-14.057,68.806-34.861,105.845-44.428c57.957-14.97,120.753-7.384,180.022-12.992
	c78.377-7.416,161.113-29.644,221.356-82.892c24.428-21.591,49.007-50.767,64.162-79.793c14.874-28.488,26.188-66.838,26.188-99.251
	C-169.836,185.168-340.876,63.97-551.864,63.97z"/>
<path d="M518.446,63.754c-210.988,0-382.028,121.198-382.028,270.703c0,46.356,17.152,90.871,45.123,127.457
	c24.005,31.398,53.094,49.132,83.912,72.599c45.28,34.485-36.219,134.7-65.921,158.251c30.618-2.048,79.883-22.939,102.095-33.663
	c39.863-19.244,65.672-34.649,102.662-48.157c41.337-15.095,85.741-13.479,129.032-13.059
	c96.26,0.933,202.508-18.717,276.801-84.383c24.428-21.591,49.008-50.767,64.162-79.793c14.874-28.488,26.188-66.838,26.188-99.251
	C900.473,184.952,729.434,63.754,518.446,63.754z"/>
</svg>
