<?xml version="1.0" encoding="utf-8"?>
<!-- Generator: Adobe Illustrator 17.0.0, SVG Export Plug-In . SVG Version: 6.00 Build 0)  -->
<!DOCTYPE svg PUBLIC "-//W3C//DTD SVG 1.1//EN" "http://www.w3.org/Graphics/SVG/1.1/DTD/svg11.dtd">
<svg version="1.1" id="Layer_1" xmlns="http://www.w3.org/2000/svg" xmlns:xlink="http://www.w3.org/1999/xlink" x="0px" y="0px"
	 width="1000px" height="750px" viewBox="0 0 1000 750" enable-background="new 0 0 1000 750" xml:space="preserve">
<g>
	<path d="M117.272,599.585c-3.933-5.651-10.4-9.024-17.301-9.024c-4.307,0-8.458,1.302-12.007,3.765
		c-4.614,3.204-7.704,8.019-8.7,13.557c-0.997,5.54,0.222,11.134,3.425,15.742l72.046,104.594c3.932,5.658,10.4,9.037,17.302,9.037
		c0,0,0.001,0,0.001,0c4.305,0,8.456-1.303,12.013-3.775c3.853-2.705,6.633-6.477,8.039-10.907
		c1.743-5.499,2.966-11.923-1.18-17.891L117.272,599.585z"/>
	<path d="M517.904,102.863c-4.329-6.322-11.494-10.179-19.164-10.317c-0.255-0.011-0.554-0.016-0.851-0.016
		c-7.247,0-14.235,3.603-18.693,9.637L122.892,584.311c-0.511,0.692-0.523,1.632-0.029,2.337l82,117
		c0.382,0.545,0.999,0.852,1.638,0.852c0.211,0,0.424-0.033,0.632-0.103l17.957-5.986l102.794-29.114
		c15.796,35.252,50.955,58.426,90.074,58.486h0.153c54.425,0,98.771-44.279,98.854-98.707c0.006-3.977-0.227-7.944-0.694-11.874
		l265.911-73.538c7.389-2.037,13.372-7.558,16.003-14.767c2.617-7.228,1.585-15.304-2.76-21.609L517.904,102.863z M276.329,526.484
		c-3.226,4.174-8.178,4.75-13.049,4.75v0.999c-0.007,0-0.013,0-0.02,0l-0.02-0.999c-3.697-0.006-7.187-1.202-10.137-3.459
		c-3.492-2.699-5.73-6.603-6.294-10.989c-0.564-4.386,0.615-8.728,3.318-12.227L437.88,262.817
		c3.162-4.093,7.946-6.438,13.126-6.438c3.687,0,7.179,1.193,10.098,3.45c7.221,5.586,8.563,16.004,2.991,23.223L276.329,526.484z
		 M480.766,627.053l-0.003,1.968c-0.052,34.495-28.159,62.56-62.75,62.56c-22.887-0.035-43.676-12.595-54.603-32.131l8.959-2.479
		l89.414-24.739l19.067-5.255L480.766,627.053z"/>
	<path d="M644.188,145.451c2.671,1.464,5.677,2.239,8.691,2.239c0.889,0,1.783-0.067,2.662-0.2
		c4.513-0.683,10.092-2.186,13.214-7.814L729.439,28.38c4.786-8.643,1.646-19.579-6.998-24.378c-2.653-1.472-5.652-2.25-8.676-2.25
		c-6.527,0-12.547,3.542-15.71,9.247l-60.879,110.062C632.382,129.708,635.52,140.646,644.188,145.451z"/>
	<path d="M959.776,346.846c-1.309-8.699-8.929-15.259-17.724-15.259c-0.896,0-1.8,0.068-2.694,0.203l-124.35,18.893
		c-4.737,0.714-8.913,3.232-11.757,7.089c-2.842,3.856-4.014,8.588-3.296,13.344c0.617,3.959,2.454,7.5,5.31,10.239
		c2.848,2.731,6.801,5.867,12.149,5.867c0.001,0,0.001,0,0.001,0c0.685,0,1.382-0.053,2.103-0.161l125.21-19.798
		C954.496,365.782,961.247,356.624,959.776,346.846z"/>
	<path d="M771.515,239.735c1.719,0.521,4.319,1.213,7.044,1.213c3.065,0,5.832-0.865,8.246-2.588l102.637-74.398
		c8.036-5.747,9.902-16.971,4.159-25.02c-3.355-4.702-8.816-7.508-14.607-7.508c-3.753,0-7.354,1.155-10.417,3.342l-102.281,73.202
		c-8.046,5.747-9.915,16.971-4.156,25.036C764.482,236.262,767.724,238.586,771.515,239.735z"/>
</g>
</svg>
