<?xml version="1.0" encoding="utf-8"?>
<!-- Generator: Adobe Illustrator 17.0.2, SVG Export Plug-In . SVG Version: 6.00 Build 0)  -->
<!DOCTYPE svg PUBLIC "-//W3C//DTD SVG 1.1//EN" "http://www.w3.org/Graphics/SVG/1.1/DTD/svg11.dtd">
<svg version="1.1" id="Layer_1" xmlns="http://www.w3.org/2000/svg" xmlns:xlink="http://www.w3.org/1999/xlink" x="0px" y="0px"
	 width="1000px" height="750px" viewBox="0 0 1000 750" enable-background="new 0 0 1000 750" xml:space="preserve">
<g>
	<path fill="#1E1B1C" d="M775.628,65.454l-98.096,9.348c-13.587,1.295-34.409,18.236-67.171,27.59
		c-32.762,9.354-101.228,23.357-120.873,26.475s-116.992,14.888-127.756,19.653c-10.764,4.765-15.94,2.765-21.174,13.236
		c-5.234,10.47-9.351,19.587-15.468,33.881c-6.116,14.294-97.749,177.582-97.925,188.817
		c-0.176,11.235,23.063,111.227,31.181,117.932c4.88,4.031,21.168,23.088,34.726,37.52c-18.154,13.713-29.892,35.471-29.892,59.976
		c0,41.49,33.634,75.124,75.124,75.124s75.124-33.634,75.124-75.124c0-22.811-10.18-43.232-26.23-57.009
		c4.457-2.07,8.177-3.943,10.376-5.144c8.293-4.53,25.351-8.648,31.762-6.766c6.411,1.882,33.056-19.353,38.879-23.648
		s89.226-70.824,89.226-70.824s25.057,1.352,29.88-0.354c4.823-1.706,14.116-8.824,13.292-17.47
		c-0.824-8.646,5.763-17.999,18.115-19.176c12.352-1.177,53.759-37.53,76.874-69.647s55.229-61.352,64.522-68.47
		c9.293-7.118,31.393-29.167,31.393-29.167L775.628,65.454z M353.383,472.952l-18.524,15.663l-35.331-67.075L353.383,472.952z
		 M449.226,415.612c-4.941,0.471-49.941,29.689-52.97,30.601s-28.542-28.473-36.547-36.966c-5.669-6.014-8.105-3.325-9.488-11.295
		c-1.383-7.97-11.709-9.151-7.386-9.563s45.531-71.666,45.531-71.666s-7.73,59.449-0.41,68.723
		C394.024,393.134,454.167,415.141,449.226,415.612z"/>
	<polygon fill="#1E1B1C" points="201.157,695.989 466.58,695.989 487.419,680.634 221.996,680.634 	"/>
</g>
</svg>
