<?xml version="1.0" encoding="utf-8"?>
<!-- Generator: Adobe Illustrator 17.0.0, SVG Export Plug-In . SVG Version: 6.00 Build 0)  -->
<!DOCTYPE svg PUBLIC "-//W3C//DTD SVG 1.1//EN" "http://www.w3.org/Graphics/SVG/1.1/DTD/svg11.dtd">
<svg version="1.1" id="Layer_1" xmlns="http://www.w3.org/2000/svg" xmlns:xlink="http://www.w3.org/1999/xlink" x="0px" y="0px"
	 width="1000px" height="750px" viewBox="0 0 1000 750" enable-background="new 0 0 1000 750" xml:space="preserve">
<path d="M517.393,75c-193.728,0-290.579,120.778-290.579,362.318c0,158.448,77.771,237.682,233.33,237.682
	c45.405,0,88.647-1.937,129.713-5.798l-1.451-39.129h-125.36c-65.219,0-112.446-16.665-141.667-50
	c-29.235-33.335-43.839-86.471-43.839-159.421c0-100,19.199-174.75,57.607-224.272c38.403-49.513,98.912-74.277,181.521-74.277
	c139.606,0,209.421,59.421,209.421,178.262c0,69.089-12.685,118.116-38.045,147.099c-25.36,28.987-58.333,43.481-98.912,43.481
	l52.897-267.391h-33.33l-11.597,28.983c-7.245-7.245-14.255-13.282-21.013-18.116c-3.388-2.41-9.783-6.157-19.204-11.23
	c-9.421-5.073-23.313-7.612-41.667-7.612c-32.857,0-64.741,16.917-95.652,50.725c-15.467,16.431-28.023,39.133-37.678,68.116
	c-9.673,28.987-14.494,60.031-14.494,93.118c0,33.092,7.245,59.058,21.738,77.895c14.494,18.841,35.745,28.262,63.768,28.262
	c14.494,0,28.987-3.26,43.476-9.783c14.494-6.519,25.113-12.556,31.884-18.116c6.762-5.546,15.219-13.406,25.365-23.547
	l5.794,47.824c34.299,0,63.883-3.498,88.77-10.509c24.874-6.997,46.975-18.713,66.303-35.144
	c39.133-33.808,58.695-94.202,58.695-181.159C773.187,151.09,687.919,75,517.393,75z M555.796,432.249
	c-21.26,22.225-38.041,37.567-50.363,46.011c-12.318,8.461-26.935,12.685-43.839,12.685c-32.857,0-49.275-21.38-49.275-64.131
	c0-42.755,9.659-80.911,28.983-114.494c19.319-33.569,45.405-50.363,78.262-50.363c14.971,0,27.289,2.901,36.957,8.695
	c4.825,2.901,8.695,5.436,11.592,7.612c2.901,2.172,5.913,4.958,9.058,8.333c3.14,3.383,5.188,5.321,6.161,5.794L555.796,432.249z"
	/>
</svg>
