<?xml version="1.0" encoding="utf-8"?>
<!-- Generator: Adobe Illustrator 17.0.0, SVG Export Plug-In . SVG Version: 6.00 Build 0)  -->
<!DOCTYPE svg PUBLIC "-//W3C//DTD SVG 1.1//EN" "http://www.w3.org/Graphics/SVG/1.1/DTD/svg11.dtd">
<svg version="1.1" id="Layer_1" xmlns="http://www.w3.org/2000/svg" xmlns:xlink="http://www.w3.org/1999/xlink" x="0px" y="0px"
	 width="1000px" height="750px" viewBox="0 0 1000 750" enable-background="new 0 0 1000 750" xml:space="preserve">
<g>
	<polygon points="899.702,75 899.213,75 104.082,75 500.091,450.509 	"/>
	<path d="M951.407,118.474L670.969,382.002l277.27,258.293c3.386-7.651,4.995-14.893,4.995-22.063V131.826
		C953.234,127.557,952.699,123.355,951.407,118.474z"/>
	<path d="M49.087,115.297c-1.478,5.502-2.321,11.014-2.321,16.529v486.311c0,5.996,1.07,12.11,2.987,18.084l279.591-255.184
		L49.087,115.297z"/>
	<polygon points="499.864,542.574 378.234,427.271 106.579,675 887.27,675 621.943,427.933 	"/>
</g>
</svg>
