<?xml version="1.0" encoding="utf-8"?>
<!-- Generator: Adobe Illustrator 17.0.0, SVG Export Plug-In . SVG Version: 6.00 Build 0)  -->
<!DOCTYPE svg PUBLIC "-//W3C//DTD SVG 1.1//EN" "http://www.w3.org/Graphics/SVG/1.1/DTD/svg11.dtd">
<svg version="1.1" id="Layer_1" xmlns="http://www.w3.org/2000/svg" xmlns:xlink="http://www.w3.org/1999/xlink" x="0px" y="0px"
	 width="1000px" height="750px" viewBox="0 0 1000 750" enable-background="new 0 0 1000 750" xml:space="preserve">
<g>
	<path d="M412.146,421.873v1.263c0,20.372,4.658,39.905,14.006,58.58c11.024,19.522,26.101,35.003,45.199,46.462
		c19.1,11.459,40.309,17.19,63.662,17.19c23.343,0,44.564-5.73,63.662-17.19c19.099-11.459,34.154-26.94,45.199-46.462h151.517
		c-19.534,55.184-53.476,100.373-101.859,135.59c-48.384,35.225-102.719,52.839-162.975,52.839
		c-44.998,0-87.435-9.761-127.325-29.284c-89.127,43.301-153.223,45.402-192.259,6.367c-13.587-12.722-20.372-33.943-20.372-63.651
		c0-29.709,5.729-62.814,17.188-99.323c11.459-36.479,30.558-76.596,57.297-120.317c26.738-43.709,58.352-83.397,94.856-119.048
		c21.211-22.065,34.797-35.651,40.744-40.744c-52.638,25.464-100.167,64.936-142.603,118.411
		c15.279-61.953,48.166-112.883,98.677-152.789c50.494-39.889,108.427-59.842,173.798-59.842c6.791,0,13.57,0.436,20.372,1.273
		c47.534-21.21,90.814-33.105,129.87-35.65c39.036-2.547,66.622,3.819,82.761,19.098c32.244,33.103,35.216,84.888,8.913,155.335
		c24.605,43.29,36.924,89.982,36.924,140.057c0,11.888-0.435,22.499-1.273,31.837H657.882H412.146z M385.409,630.684
		c-56.877-34.802-96.767-83.599-119.684-146.433c-38.198,74.707-43.29,126.061-15.279,154.061
		C275.055,662.929,320.038,660.382,385.409,630.684z M647.696,348.019c-1.708-30.558-14.006-56.66-36.924-78.304
		c-22.919-21.645-49.879-32.468-80.851-32.468c-30.993,0-57.933,10.823-80.851,32.468c-22.919,21.644-35.232,47.746-36.925,78.304
		H647.696z M633.69,130.294c54.315,22.081,97.605,57.731,129.871,106.953c19.522-52.622,18.663-89.546-2.547-110.772
		C738.096,102.718,695.644,103.991,633.69,130.294z"/>
</g>
</svg>
