<?xml version="1.0" encoding="utf-8"?>
<!-- Generator: Adobe Illustrator 17.0.0, SVG Export Plug-In . SVG Version: 6.00 Build 0)  -->
<!DOCTYPE svg PUBLIC "-//W3C//DTD SVG 1.1//EN" "http://www.w3.org/Graphics/SVG/1.1/DTD/svg11.dtd">
<svg version="1.1" id="Layer_1" xmlns="http://www.w3.org/2000/svg" xmlns:xlink="http://www.w3.org/1999/xlink" x="0px" y="0px"
	 width="1000px" height="750px" viewBox="0 0 1000 750" enable-background="new 0 0 1000 750" xml:space="preserve">
<g>
	<path d="M837.01,277.445c0,8.349-0.658,24.579-1.975,48.709c-1.328,24.145-4.18,47.841-8.557,71.087
		c-4.399,23.268-12.506,49.366-24.354,78.327c-11.859,28.962-26.328,55.083-43.454,78.328
		c-17.102,23.257-40.589,45.208-70.418,65.822c-29.85,20.624-63.639,35.335-101.366,44.101c-20.207,5.265-40.819,8.336-61.882,9.215
		c-0.878,0-2.622,0.428-5.255,1.317c-17.569,0.866-35.116,0.866-52.663,0c-108.831-8.766-191.766-62.3-248.805-160.605
		c-26.329-46.514-41.26-90.835-44.759-132.96c-2.633,12.298-4.399,22.83-5.266,31.594c-2.632-50.024,1.317-90.833,11.848-122.428
		c-7.898,13.165-13.614,25.462-17.113,36.861c7.015-39.494,16.23-70.638,27.645-93.468c0.867-5.265,6.132-14.914,15.798-28.961
		c0-1.749,0-3.066,0-3.949c-1.767-24.563,0.658-46.734,7.24-66.48s12.056-32.028,16.455-36.861
		c4.383-4.816,7.899-8.557,10.531-11.19c0.867,21.063,11.848,41.26,32.911,60.557c5.266,0.883,10.082,1.317,14.481,1.317
		c21.929-4.383,44.759-3.95,68.454,1.315c14.032-17.547,35.544-29.395,64.505-35.543l25.013-1.317
		c-25.462,14.931-40.809,36.427-46.076,64.505c9.649,20.196,22.38,30.278,38.177,30.278c13.163,0,22.812,0,28.961,0
		c14.914,0,22.813,1.317,23.696,3.95v1.315v1.317c0.866,0.883,0.866,2.2,0,3.95v1.317v1.317c-0.883,8.781-3.95,15.363-9.215,19.746
		c-0.884,0-1.317,0.225-1.317,0.658c0,0.449-0.45,0.658-1.317,0.658c0,0.883-3.95,3.516-11.848,7.898
		c-10.531,7.032-18.88,12.731-25.013,17.113c-11.414,7.032-17.113,11.848-17.113,14.481v1.317h-1.317
		c2.633,5.265,4.382,11.848,5.266,19.746c1.749,7.898,2.183,12.731,1.315,14.481c0,4.399,0,8.348,0,11.847
		c-10.531-5.265-20.629-8.764-30.278-10.531c-12.297,5.266-19.313,10.982-21.063,17.114c-0.883,3.516-1.766,7.032-2.632,10.531
		c0,16.68,11.847,32.044,35.543,46.074c9.648,6.144,19.522,9.665,29.62,10.531c10.082,0.889,17.98,0.45,23.696-1.315
		c5.699-1.756,12.714-4.389,21.063-7.899c8.332-3.499,14.257-5.699,17.772-6.582c26.335-7.015,47.826-0.867,64.5,18.43
		c5.278,5.266,6.363,10.324,3.303,15.139c-3.082,4.837-7.702,6.374-13.834,4.607c-2.622,0.878-4.399,1.109-5.254,0.658
		c-0.889-0.428-2.863,0-5.936,1.317c-3.083,1.317-5.254,2.194-6.571,2.633c-1.328,0.449-3.522,1.766-6.582,3.95
		c-3.094,2.204-5.497,3.741-7.252,4.607c-1.766,0.877-4.596,2.852-8.557,5.925c-3.949,3.082-7.234,5.056-9.868,5.923
		c-10.531,7.898-25.671,13.614-45.417,17.113c-19.746,3.51-36.201,3.51-49.366,0c10.531,7.899,18.863,13.614,25.013,17.114
		c6.132,3.521,16.23,9.006,30.278,16.455c14.031,7.471,26.103,12.297,36.201,14.481c10.077,2.205,22.813,3.29,38.183,3.29
		c15.347,0,29.389-2.632,42.126-7.898c12.703-5.265,26.317-14.25,40.809-26.986c14.47-12.715,28.292-28.731,41.468-48.05
		c2.633-4.388,4.377-7.021,5.255-7.898c1.755,0-0.45,11.848-6.583,35.544c-2.633,12.297-3.51,18.43-2.633,18.43
		c14.92-10.531,25.222-30.717,30.936-60.556c5.706-29.828,6.364-58.79,1.975-86.885c10.531,4.399,17.98,12.731,22.38,25.013
		l2.644,2.632c5.254-16.664,8.326-38.385,9.215-65.163c0.856-26.763-1.766-48.917-7.898-66.48
		c11.386,3.516,21.918,14.931,31.594,34.228c-2.633-14.032-6.594-26.988-11.848-38.836c-5.278-11.848-11.19-21.929-17.783-30.278
		c-6.572-8.332-13.615-16.23-21.063-23.696c-7.46-7.448-15.128-13.597-23.027-18.43c-7.91-4.816-15.589-9.215-23.038-13.165
		c-7.471-3.949-14.492-7.015-21.063-9.215c-6.593-2.183-12.518-3.949-17.773-5.265c-5.276-1.317-9.225-2.184-11.847-2.633
		c-2.633-0.434-3.522-0.658-2.633-0.658c21.919-6.132,44.297-9.215,67.137-9.215c-2.632-4.382-7.689-8.332-15.138-11.848
		c-7.471-3.499-15.6-6.582-24.366-9.215c-8.776-2.633-17.332-4.816-25.659-6.582c-8.36-1.75-18.233-3.95-29.621-6.583h-1.315h2.622
		c24.573-7.015,63.189-1.749,115.846,15.798c19.296,6.148,36.871,17.338,52.657,33.569c15.808,16.246,25.681,28.303,29.631,36.201
		c3.937,7.898,6.79,14.481,8.557,19.746v-5.265c0.855-4.383,0.197-11.19-1.975-20.405c-2.205-9.215-5.497-19.089-9.873-29.621
		c0.856,0,2.171,0.658,3.949,1.975c1.745,1.317,5.036,6.149,9.874,14.481c4.816,8.349,10.3,20.405,16.444,36.201
		c9.654,23.696,17.98,66.272,25.024,127.694l7.898-50.024C836.549,262.756,837.01,269.113,837.01,277.445z"/>
</g>
</svg>
