<?xml version="1.0" encoding="utf-8"?>
<!-- Generator: Adobe Illustrator 17.0.0, SVG Export Plug-In . SVG Version: 6.00 Build 0)  -->
<!DOCTYPE svg PUBLIC "-//W3C//DTD SVG 1.1//EN" "http://www.w3.org/Graphics/SVG/1.1/DTD/svg11.dtd">
<svg version="1.1" id="Layer_1" xmlns="http://www.w3.org/2000/svg" xmlns:xlink="http://www.w3.org/1999/xlink" x="0px" y="0px"
	 width="1000px" height="750px" viewBox="0 0 1000 750" enable-background="new 0 0 1000 750" xml:space="preserve">
<g>
	<polygon points="400,75 200,75 200,275 275,200 400,325 450,275 325,150 	"/>
	<polygon points="600,75 675,150 550,275 600,325 725,200 800,275 800,75 	"/>
	<polygon points="600,425 550,475 675,600 600,675 800,675 800,475 725,550 	"/>
	<polygon points="400,425 275,550 200,475 200,675 400,675 325,600 450,475 	"/>
</g>
</svg>
