<?xml version="1.0" encoding="utf-8"?>
<!-- Generator: Adobe Illustrator 17.0.2, SVG Export Plug-In . SVG Version: 6.00 Build 0)  -->
<!DOCTYPE svg PUBLIC "-//W3C//DTD SVG 1.1//EN" "http://www.w3.org/Graphics/SVG/1.1/DTD/svg11.dtd">
<svg version="1.1" id="Layer_1" xmlns="http://www.w3.org/2000/svg" xmlns:xlink="http://www.w3.org/1999/xlink" x="0px" y="0px"
	 width="1000px" height="750px" viewBox="0 0 1000 750" enable-background="new 0 0 1000 750" xml:space="preserve">
<path fill-rule="evenodd" clip-rule="evenodd" d="M661.977,163.139c-13.454-6.351-24.929,28.406-24.929,28.406
	c-1.754,10.405-9.989,23.49-9.989,23.49c-1.627,4.057-6.214,11.324-10.408,17.19c-8.83,11.146-17.502,29.936-29.066,31.382
	c-24.573,2.891,0-36.136-1.073-54.917c1.514-2.187,2.615-9.319,3.411-17.848c1.592-17.057,1.963-39.681,1.963-39.681
	c2.649-7.051,3.899-32.743,3.899-32.743c0.709-8.334-0.039-14.297-1.559-18.553c-1.52-4.257-3.813-6.808-6.194-8.317
	c-14.903-7.177-23.576,5.832-24.638,19.259c-0.789,5.314-1.045,10.593-1.089,14.556c-0.074,3.938,0.063,6.56,0.063,6.56
	c-1.582,7.663-1.771,20.395-1.771,20.395c-2.098,2.378-8.984,34.078-8.984,34.078c-3.081,5.358-5.934,14.952-8.017,23.208
	c-0.822,9.194-2.267,20.758-8.049,25.094c-7.227,5.782-2.891-13.009-4.162-19.863c-0.118-8.952-0.517-19.571-0.886-27.952
	c-0.369-8.381-0.708-14.524-0.708-14.524c1.053-3.683,1.318-25.48,1.385-36.148c-0.039-3.609-0.061-5.945-0.061-5.945
	c-7.131-24.213,14.55-64.686-11.468-69.022c-37.582-8.673-18.791,56.373-29.634,83.188c-0.539,6.424-0.928,12.78-1.181,17.529
	c-0.253,4.749-0.372,7.892-0.372,7.892c-3.143,1.76-1.802,43.935-1.802,43.935c0.381,21.633-4.206,14.716-4.206,14.716
	c-7.402-0.724-8.05-13.232-8.05-13.232c0.109-6.362-5.732-38.285-5.732-38.285c0.517-8.286-6.264-33.633-6.264-33.633
	c-2.66-6.525-1.437-22.229-1.437-22.229l1.302-14.849c1.002-11.787-0.443-26.242-10.561-30.578
	c-2.891-1.445-8.673-4.336-12.064-0.448c-3.266,0.419-5.7,3.563-7.511,8.038c-5.433,13.426-5.248,38.829-5.248,38.829
	c1.857,10.36,0.309,18.013,0.309,18.013c-0.464,0.803-0.623,4.014-0.601,8.379c0.021,4.365,0.223,9.884,0.482,15.302
	c1.505,23.187,2.951,44.869,5.733,68.283c0.061,3.605-0.164,6.158-0.164,6.158c-2.309,1.528-2.208,32.272-2.208,32.272
	c-0.579,9.662-6.162,17.498-11.6,22.919s-10.729,8.424-10.729,8.424c-5.154-4.605-9.211-9.938-12.639-15.686
	c-1.714-2.874-3.271-5.852-4.734-8.894c-3.766-8.414-7.883-16.754-12.555-24.562c-2.336-3.904-4.804-7.672-7.37-11.212
	c-8.719-12.595-18.837-24.159-34.737-27.05c-1.445,0-4.336,1.445-5.782,2.891c-13.009,17.345,0,37.582,12.346,51.292
	c2.348,3.3,4.515,6.557,6.152,9.744c2.356,3.807,4.646,7.637,6.783,11.523c6.409,11.657,11.438,23.809,12.655,37.398
	c2.537,12.906,6.874,25.916,11.751,38.314c1.474,2.978,2.998,5.926,4.551,8.83c17.09,31.943,37.856,58.463,37.856,58.463
	c0.022,0.038,0.048,0.074,0.07,0.112c1.195,1.976,17.665,31.728-0.137,144.189c-2.802,17.701-9.726,110.566-9.726,110.566
	l72.893,8.672h66.585c0,0-14.95-157.933-0.357-243.426c10.338-5.247,15.816-11.289,15.816-11.289
	c17.234-20.037,30.894-53.362,30.894-53.362c-0.451-1.687,1.368-11.025,3.995-22.726c2.627-11.701,6.06-25.768,8.824-37.252
	c3.804-24.322,16.813-47.449,28.621-68.944c1.435-3.028,6.037-12.815,10.279-21.874c4.242-9.059,8.126-17.346,8.126-17.346
	C685.138,168.678,661.977,163.139,661.977,163.139z"/>
</svg>
