<?xml version="1.0" encoding="utf-8"?>
<!-- Generator: Adobe Illustrator 17.0.0, SVG Export Plug-In . SVG Version: 6.00 Build 0)  -->
<!DOCTYPE svg PUBLIC "-//W3C//DTD SVG 1.1//EN" "http://www.w3.org/Graphics/SVG/1.1/DTD/svg11.dtd">
<svg version="1.1" id="Layer_1" xmlns="http://www.w3.org/2000/svg" xmlns:xlink="http://www.w3.org/1999/xlink" x="0px" y="0px"
	 width="1000px" height="750px" viewBox="0 0 1000 750" enable-background="new 0 0 1000 750" xml:space="preserve">
<g>
	<polygon points="718.186,164.742 718.186,83.171 677.422,83.171 677.422,164.742 595.858,164.742 595.858,205.542 677.422,205.542 
		677.422,287.113 718.186,287.113 718.186,205.542 799.793,205.542 799.793,164.742 	"/>
	<path d="M581.643,75c0,0-130.585,0-176.863,0c-89.742,0-164.558,66.189-164.558,138.981c0,74.366,49.13,133.698,133.545,133.698
		c5.848,0,11.588-0.341,17.139-0.748c-5.478,10.5-9.375,22.239-9.375,34.502c0,20.665,11.363,32.441,25.425,46.09
		c-10.615,0-20.889,0.298-32.064,0.298c-102.758,0-174.686,70.73-174.686,138.573c0,66.827,86.708,108.607,189.496,108.607
		c117.118,0,189.162-66.457,189.162-133.321c0-53.519-11.588-80.482-68.664-123.307c-16.427-12.299-52.09-37.542-52.09-54.456
		c0-19.801,5.624-29.59,35.518-52.917c30.562-23.929,52.242-55.428,52.242-94.544c0-42.6-17.4-81.23-50.181-99.98h46.43L581.643,75z
		 M521.68,530.237c1.465,6.153,2.286,12.524,2.286,19.054c0,54-34.806,96.192-134.67,96.192
		c-71.028,0-122.335-44.929-122.335-98.971c0-52.917,60.152-98.593,131.223-97.767c16.537,0.152,32.028,2.815,46.017,7.351
		C482.788,482.908,513.88,499.639,521.68,530.237z M407.966,320.636c-47.701-1.465-92.97-45.19-101.184-107.78
		c-8.28-62.59,23.741-110.479,71.375-109.093c47.628,1.465,88.429,52.802,96.642,115.392
		C483.013,281.744,455.6,322.028,407.966,320.636z"/>
</g>
</svg>
