<?xml version="1.0" encoding="utf-8"?>
<!-- Generator: Adobe Illustrator 17.0.0, SVG Export Plug-In . SVG Version: 6.00 Build 0)  -->
<!DOCTYPE svg PUBLIC "-//W3C//DTD SVG 1.1//EN" "http://www.w3.org/Graphics/SVG/1.1/DTD/svg11.dtd">
<svg version="1.1" id="Layer_1" xmlns="http://www.w3.org/2000/svg" xmlns:xlink="http://www.w3.org/1999/xlink" x="0px" y="0px"
	 width="1000px" height="750px" viewBox="0 0 1000 750" enable-background="new 0 0 1000 750" xml:space="preserve">
<g>
	<path d="M500.534,675.001c164.061,0.084,297.102-134.265,297.24-299.868c-0.138-165.849-133.179-300.192-297.24-300.132
		c-164.103-0.06-297.12,134.283-297.228,300.132C203.414,540.736,336.431,675.085,500.534,675.001z M500.534,144.12
		c126.255,0,228.595,103.378,228.451,231.031c0.138,127.389-102.196,230.767-228.451,230.713
		c-126.285,0.06-228.637-103.342-228.781-230.731C271.897,247.498,374.249,144.12,500.534,144.12z"/>
	<path d="M548.395,500.182c-2.904,0-5.286-3.396-5.286-7.578V315.212H432.315v22.77h20.052c2.904,0,5.238,2.376,5.238,5.286v151.635
		c0,2.91-2.358,5.286-5.238,5.286h-20.052v23.531h137.685v-23.531h-21.606V500.182z"/>
	<path d="M500.372,204.802c26.232,0,47.531,21.276,47.531,47.531s-21.3,47.537-47.531,47.537c-26.279,0-47.561-21.282-47.561-47.537
		S474.093,204.802,500.372,204.802z"/>
</g>
</svg>
