<?xml version="1.0" encoding="utf-8"?>
<!-- Generator: Adobe Illustrator 17.0.0, SVG Export Plug-In . SVG Version: 6.00 Build 0)  -->
<!DOCTYPE svg PUBLIC "-//W3C//DTD SVG 1.1//EN" "http://www.w3.org/Graphics/SVG/1.1/DTD/svg11.dtd">
<svg version="1.1" id="Layer_1" xmlns="http://www.w3.org/2000/svg" xmlns:xlink="http://www.w3.org/1999/xlink" x="0px" y="0px"
	 width="1000px" height="750px" viewBox="0 0 1000 750" enable-background="new 0 0 1000 750" xml:space="preserve">
<g>
	<path d="M681.395,375c0,100.182-81.235,181.395-181.395,181.395c-100.182,0-181.395-81.214-181.395-181.395
		c0-11.926,1.177-23.59,3.423-34.884H200v241.112C200,632.987,241.926,675,293.772,675h412.456C757.987,675,800,633.031,800,581.228
		V340.116H678.016C680.218,351.41,681.395,363.074,681.395,375z M706.228,75H293.772C241.969,75,200,116.991,200,168.772v101.577
		h151.875c32.834-46.395,86.948-76.744,148.125-76.744s115.291,30.349,148.125,76.744H800V168.772
		C800,116.991,758.009,75,706.228,75z M752.1,190.814c0,9.244-7.544,16.744-16.744,16.744h-50.189
		c-9.201,0-16.744-7.544-16.744-16.744v-50.233c0-9.244,7.565-16.744,16.744-16.744h50.189c9.244,0,16.744,7.544,16.744,16.744
		V190.814z M611.628,375c0-61.679-49.993-111.628-111.628-111.628S388.372,313.321,388.372,375S438.365,486.628,500,486.628
		S611.628,436.679,611.628,375z"/>
</g>
</svg>
