<?xml version="1.0" encoding="utf-8"?>
<!-- Generator: Adobe Illustrator 17.0.0, SVG Export Plug-In . SVG Version: 6.00 Build 0)  -->
<!DOCTYPE svg PUBLIC "-//W3C//DTD SVG 1.1//EN" "http://www.w3.org/Graphics/SVG/1.1/DTD/svg11.dtd">
<svg version="1.1" id="Layer_1" xmlns="http://www.w3.org/2000/svg" xmlns:xlink="http://www.w3.org/1999/xlink" x="0px" y="0px"
	 width="1000px" height="750px" viewBox="0 0 1000 750" enable-background="new 0 0 1000 750" xml:space="preserve">
<g>
	<rect x="209.385" y="274.241" width="124.611" height="400.759"/>
	<path d="M271.699,75c-39.927,0-72.2,32.364-72.2,72.2c0,39.881,32.273,72.245,72.2,72.245c39.821,0,72.185-32.364,72.185-72.245
		C343.883,107.364,311.52,75,271.699,75z"/>
	<path d="M651.181,264.248c-60.597,0-101.238,33.23-117.868,64.728h-1.701v-54.735H412.119V675h124.52V476.746
		c0-52.274,9.887-102.908,74.706-102.908c63.831,0,64.743,59.777,64.743,106.28V675h124.413V455.181
		C800.501,347.23,777.219,264.248,651.181,264.248z"/>
</g>
</svg>
