<?xml version="1.0" encoding="utf-8"?>
<!-- Generator: Adobe Illustrator 17.0.0, SVG Export Plug-In . SVG Version: 6.00 Build 0)  -->
<!DOCTYPE svg PUBLIC "-//W3C//DTD SVG 1.1//EN" "http://www.w3.org/Graphics/SVG/1.1/DTD/svg11.dtd">
<svg version="1.1" id="Layer_1" xmlns="http://www.w3.org/2000/svg" xmlns:xlink="http://www.w3.org/1999/xlink" x="0px" y="0px"
	 width="1000px" height="750px" viewBox="0 0 1000 750" enable-background="new 0 0 1000 750" xml:space="preserve">
<g>
	<path d="M419.702,551.014l-30.375,30.141c-26.321,26.063-69.118,26.11-95.392,0c-12.633-12.563-19.571-29.18-19.571-46.922
		s6.984-34.383,19.571-46.946l111.751-110.884c23.133-22.992,66.704-56.766,98.485-25.266c14.578,14.485,38.133,14.367,52.571-0.188
		c14.484-14.555,14.391-38.11-0.188-52.571c-53.954-53.555-133.759-43.641-203.252,25.266L241.552,434.529
		c-26.789,26.649-41.555,62.04-41.555,99.728c0,37.641,14.766,73.055,41.579,99.681C269.185,661.359,305.42,675,341.631,675
		s72.516-13.641,100.126-41.063l30.375-30.188c14.578-14.485,14.672-38.016,0.188-52.547
		C457.859,536.671,434.304,536.577,419.702,551.014z M758.425,120.322c-57.985-57.516-139.009-60.633-192.705-7.383l-37.829,37.547
		c-14.578,14.485-14.695,37.993-0.234,52.571c14.508,14.578,38.016,14.672,52.571,0.188l37.829-37.547
		c27.797-27.61,64.196-16.172,87.985,7.383c12.633,12.516,19.57,29.203,19.57,46.922c0,17.742-6.984,34.383-19.57,46.922
		L586.79,385.192c-54.493,54.071-80.11,28.735-91.009,17.883c-14.578-14.485-38.11-14.367-52.547,0.187
		c-14.485,14.578-14.391,38.133,0.188,52.571c25.008,24.821,53.626,37.125,83.556,37.125c36.68,0,75.423-18.446,112.243-55.008
		l119.204-118.267c26.813-26.578,41.579-61.993,41.579-99.634S785.237,146.948,758.425,120.322z"/>
</g>
</svg>
