<?xml version="1.0" encoding="utf-8"?>
<!-- Generator: Adobe Illustrator 18.1.1, SVG Export Plug-In . SVG Version: 6.00 Build 0)  -->
<!DOCTYPE svg PUBLIC "-//W3C//DTD SVG 1.1//EN" "http://www.w3.org/Graphics/SVG/1.1/DTD/svg11.dtd">
<svg version="1.1" id="Layer_1" xmlns="http://www.w3.org/2000/svg" xmlns:xlink="http://www.w3.org/1999/xlink" x="0px" y="0px"
	 viewBox="0 0 1000 750" enable-background="new 0 0 1000 750" xml:space="preserve">
<g>
	<g>
		<path fill="#010101" d="M264.6,248.8h-51.2c-32,0-58-26-58-58v-51.2c0-32,26-58,58-58h51.2c32,0,58,26,58,58v51.2
			C322.6,222.8,296.6,248.8,264.6,248.8z M215.3,188.9h47.4v-47.4h-47.4V188.9z"/>
	</g>
	<g>
		<path fill="#010101" d="M809.7,200.2H399.9c-19.3,0-35-15.7-35-35s15.7-35,35-35h409.8c19.3,0,35,15.7,35,35
			S829,200.2,809.7,200.2z"/>
	</g>
	<g>
		<path fill="#010101" d="M264.6,458.6h-51.2c-32,0-58-26-58-58v-51.2c0-32,26-58,58-58h51.2c32,0,58,26,58,58v51.2
			C322.6,432.6,296.6,458.6,264.6,458.6z M215.3,398.7h47.4v-47.4h-47.4V398.7z"/>
	</g>
	<g>
		<path fill="#010101" d="M809.7,410H399.9c-19.3,0-35-15.7-35-35c0-19.3,15.7-35,35-35h409.8c19.3,0,35,15.7,35,35
			C844.7,394.3,829,410,809.7,410z"/>
	</g>
	<g>
		<path fill="#010101" d="M264.6,668.4h-51.2c-32,0-58-26-58-58v-51.2c0-32,26-58,58-58h51.2c32,0,58,26,58,58v51.2
			C322.6,642.4,296.6,668.4,264.6,668.4z M215.3,608.5h47.4v-47.4h-47.4V608.5z"/>
	</g>
	<g>
		<path fill="#010101" d="M809.7,619.7H399.9c-19.3,0-35-15.7-35-35c0-19.3,15.7-35,35-35h409.8c19.3,0,35,15.7,35,35
			C844.7,604.1,829,619.7,809.7,619.7z"/>
	</g>
</g>
</svg>
