<?xml version="1.0" encoding="utf-8"?>
<!-- Generator: Adobe Illustrator 17.0.2, SVG Export Plug-In . SVG Version: 6.00 Build 0)  -->
<!DOCTYPE svg PUBLIC "-//W3C//DTD SVG 1.1//EN" "http://www.w3.org/Graphics/SVG/1.1/DTD/svg11.dtd">
<svg version="1.1" id="Layer_3" xmlns="http://www.w3.org/2000/svg" xmlns:xlink="http://www.w3.org/1999/xlink" x="0px" y="0px"
	 width="95px" height="95px" viewBox="0 0 95 95" enable-background="new 0 0 95 95" xml:space="preserve">
<g>
	<g>
		<path d="M47.5,91.998c-24.536,0-44.498-19.961-44.498-44.497S22.964,3.002,47.5,3.002S91.998,22.964,91.998,47.5
			S72.036,91.998,47.5,91.998z M47.5,5.002C24.066,5.002,5.002,24.067,5.002,47.5c0,23.433,19.064,42.497,42.498,42.497
			S89.998,70.933,89.998,47.5C89.998,24.067,70.934,5.002,47.5,5.002z"/>
	</g>
</g>
<g>
	<g>
		<g>
			<path d="M33.42,39.954h-3.064c-1.913,0-3.47-1.557-3.47-3.47V33.42c0-1.913,1.556-3.47,3.47-3.47h3.064
				c1.913,0,3.47,1.556,3.47,3.47v3.064C36.889,38.397,35.333,39.954,33.42,39.954z M31.068,35.772h1.64v-1.64h-1.64V35.772z"/>
		</g>
	</g>
	<g>
		<g>
			<path d="M66.023,37.043H41.512c-1.155,0-2.091-0.936-2.091-2.091c0-1.155,0.936-2.091,2.091-2.091h24.511
				c1.155,0,2.091,0.936,2.091,2.091C68.114,36.107,67.178,37.043,66.023,37.043z"/>
		</g>
	</g>
	<g>
		<g>
			<path d="M33.42,52.501h-3.064c-1.913,0-3.47-1.557-3.47-3.47v-3.064c0-1.913,1.556-3.47,3.47-3.47h3.064
				c1.913,0,3.47,1.556,3.47,3.47v3.064C36.889,50.945,35.333,52.501,33.42,52.501z M31.068,48.32h1.64v-1.64h-1.64V48.32z"/>
		</g>
	</g>
	<g>
		<g>
			<path d="M66.023,49.591H41.512c-1.155,0-2.091-0.936-2.091-2.091c0-1.155,0.936-2.091,2.091-2.091h24.511
				c1.155,0,2.091,0.936,2.091,2.091C68.114,48.655,67.178,49.591,66.023,49.591z"/>
		</g>
	</g>
	<g>
		<g>
			<path d="M33.42,65.049h-3.064c-1.913,0-3.47-1.556-3.47-3.47v-3.064c0-1.913,1.556-3.47,3.47-3.47h3.064
				c1.913,0,3.47,1.556,3.47,3.47v3.064C36.889,63.493,35.333,65.049,33.42,65.049z M31.068,60.867h1.64v-1.64h-1.64V60.867z"/>
		</g>
	</g>
	<g>
		<g>
			<path d="M66.023,62.138H41.512c-1.155,0-2.091-0.936-2.091-2.091c0-1.155,0.936-2.091,2.091-2.091h24.511
				c1.155,0,2.091,0.936,2.091,2.091C68.114,61.202,67.178,62.138,66.023,62.138z"/>
		</g>
	</g>
</g>
</svg>
