<?xml version="1.0" encoding="utf-8"?>
<!-- Generator: Adobe Illustrator 18.1.1, SVG Export Plug-In . SVG Version: 6.00 Build 0)  -->
<!DOCTYPE svg PUBLIC "-//W3C//DTD SVG 1.1//EN" "http://www.w3.org/Graphics/SVG/1.1/DTD/svg11.dtd">
<svg version="1.1" id="Layer_1" xmlns="http://www.w3.org/2000/svg" xmlns:xlink="http://www.w3.org/1999/xlink" x="0px" y="0px"
	 viewBox="0 0 1000 750" enable-background="new 0 0 1000 750" xml:space="preserve">
<g>
	<path fill="#010101" d="M500,228.4c-98.8,0-179.2,80.4-179.2,179.2c0,98.8,80.4,179.2,179.2,179.2s179.2-80.4,179.2-179.2
		C679.2,308.8,598.8,228.4,500,228.4z M500,523.5c-63.9,0-115.9-52-115.9-115.9c0-63.9,52-115.9,115.9-115.9s115.9,52,115.9,115.9
		C615.9,471.5,563.9,523.5,500,523.5z"/>
	<path fill="#010101" d="M532.1,319.4c-16-7-34.6,0.3-41.6,16.3s0.3,34.6,16.3,41.6c0.2,0.1,24.2,11.4,21.7,29.8
		c-2.3,17.3,9.8,33.2,27.1,35.6c1.4,0.2,2.9,0.3,4.3,0.3c15.6,0,29.2-11.5,31.3-27.4C598.2,363.1,557.4,330.4,532.1,319.4z"/>
	<path fill="#010101" d="M504.6,438.5c-8.3,0-16.4,3.3-22.4,9.3c-5.8,5.8-9.2,14-9.2,22.4c0,8.3,3.4,16.4,9.2,22.3
		c5.8,5.9,14.1,9.3,22.4,9.3c8.3,0,16.4-3.4,22.4-9.3c5.8-5.8,9.2-14,9.2-22.3c0-8.3-3.4-16.5-9.2-22.4
		C521,441.8,512.9,438.5,504.6,438.5z"/>
	<path fill="#010101" d="M827.2,219.6H707.7L674.4,98.2C670.6,84.5,658.1,75,643.9,75H356.1c-14.2,0-26.7,9.5-30.5,23.2l-33.3,121.4
		H172.8c-17.5,0-31.6,14.2-31.6,31.6v392.1c0,17.5,14.2,31.6,31.6,31.6h654.4c17.5,0,31.6-14.2,31.6-31.6V251.3
		C858.8,233.8,844.7,219.6,827.2,219.6z M204.4,611.8V282.9h112c14.2,0,26.7-9.5,30.5-23.2l33.3-121.4h239.6l33.3,121.4
		c3.8,13.7,16.3,23.2,30.5,23.2h112l0,328.9H204.4z"/>
</g>
</svg>
