<?xml version="1.0" encoding="utf-8"?>
<!-- Generator: Adobe Illustrator 17.0.2, SVG Export Plug-In . SVG Version: 6.00 Build 0)  -->
<!DOCTYPE svg PUBLIC "-//W3C//DTD SVG 1.1//EN" "http://www.w3.org/Graphics/SVG/1.1/DTD/svg11.dtd">
<svg version="1.1" id="Layer_3" xmlns="http://www.w3.org/2000/svg" xmlns:xlink="http://www.w3.org/1999/xlink" x="0px" y="0px"
	 width="95px" height="95px" viewBox="0 0 95 95" enable-background="new 0 0 95 95" xml:space="preserve">
<g>
	<g>
		<path d="M47.5,91.998c-24.536,0-44.498-19.962-44.498-44.498S22.964,3.002,47.5,3.002c24.536,0,44.498,19.962,44.498,44.498
			S72.036,91.998,47.5,91.998z M47.5,5.002C24.067,5.002,5.002,24.066,5.002,47.5S24.067,89.998,47.5,89.998
			S89.998,70.934,89.998,47.5S70.933,5.002,47.5,5.002z"/>
	</g>
</g>
<g>
	<g>
		<path d="M47.5,39.034c-5.704,0-10.345,4.641-10.345,10.345c0,5.705,4.641,10.345,10.345,10.345s10.345-4.641,10.345-10.345
			C57.845,43.675,53.204,39.034,47.5,39.034z M47.5,56.074c-3.691,0-6.694-3.003-6.694-6.694c0-3.69,3.003-6.694,6.694-6.694
			c3.691,0,6.694,3.003,6.694,6.694C54.194,53.071,51.191,56.074,47.5,56.074z"/>
	</g>
	<g>
		<path d="M49.354,44.288c-0.923-0.405-2,0.018-2.404,0.942c-0.404,0.924,0.017,2,0.942,2.404c0.014,0.006,1.395,0.659,1.252,1.719
			c-0.135,0.999,0.565,1.918,1.565,2.053c0.083,0.011,0.165,0.016,0.247,0.016c0.9,0,1.683-0.665,1.807-1.581
			C53.17,46.813,50.812,44.926,49.354,44.288z"/>
	</g>
	<g>
		<path d="M47.764,51.164c-0.479,0-0.949,0.192-1.292,0.534c-0.338,0.337-0.534,0.808-0.534,1.291c0,0.479,0.196,0.949,0.534,1.286
			c0.338,0.342,0.812,0.539,1.292,0.539c0.48,0,0.949-0.197,1.292-0.539c0.338-0.337,0.534-0.808,0.534-1.286
			c0-0.48-0.196-0.954-0.534-1.291C48.715,51.356,48.244,51.164,47.764,51.164z"/>
	</g>
	<g>
		<path d="M66.395,38.529h-6.9l-1.925-7.01c-0.219-0.793-0.938-1.342-1.761-1.342H39.19c-0.822,0-1.543,0.549-1.76,1.342
			l-1.924,7.01h-6.901c-1.008,0-1.826,0.817-1.826,1.826v22.642c0,1.008,0.817,1.826,1.826,1.826h37.79
			c1.008,0,1.826-0.817,1.826-1.826V40.355C68.22,39.347,67.403,38.529,66.395,38.529z M64.569,61.172H30.431V42.18h6.467
			c0.822,0,1.543-0.549,1.76-1.342l1.924-7.01h13.835l1.925,7.009c0.219,0.793,0.939,1.342,1.76,1.342h6.467L64.569,61.172
			L64.569,61.172z"/>
	</g>
</g>
</svg>
