<?xml version="1.0" encoding="utf-8"?>
<!-- Generator: Adobe Illustrator 17.0.0, SVG Export Plug-In . SVG Version: 6.00 Build 0)  -->
<!DOCTYPE svg PUBLIC "-//W3C//DTD SVG 1.1//EN" "http://www.w3.org/Graphics/SVG/1.1/DTD/svg11.dtd">
<svg version="1.1" id="Layer_1" xmlns="http://www.w3.org/2000/svg" xmlns:xlink="http://www.w3.org/1999/xlink" x="0px" y="0px"
	 width="1000px" height="750px" viewBox="0 0 1000 750" enable-background="new 0 0 1000 750" xml:space="preserve">
<g>
	<path d="M426.755,224.997L351.759,74.999c-39.073,0-72.661,6.847-100.785,20.506c-28.124,13.676-50.387,31.258-66.8,52.733
		c-16.403,21.498-29.292,49.621-38.667,84.377c-9.375,34.772-15.433,68.756-18.16,101.953c-2.749,33.212-4.104,72.86-4.104,118.945
		c0,23.437,0.584,59.966,1.757,109.57c1.173,49.621,1.757,86.922,1.757,111.917h299.997V374.996H276.75
		c0-53.119,11.522-91.405,34.579-114.842C334.364,236.714,372.843,224.997,426.755,224.997z"/>
	<path d="M761.331,260.155c23.035-23.442,61.513-35.158,115.426-35.158L801.759,74.999c-39.073,0-72.661,6.847-100.785,20.506
		c-28.124,13.676-50.387,31.258-66.8,52.733c-16.403,21.498-29.292,49.621-38.667,84.377
		c-9.375,34.772-15.445,68.756-18.165,101.953c-2.743,33.214-4.098,72.86-4.098,118.945c0,23.437,0.584,59.966,1.752,109.57
		c1.168,49.621,1.763,86.922,1.763,111.917h299.996V374.996H726.752C726.752,321.878,738.275,283.592,761.331,260.155z"/>
</g>
</svg>
