<?xml version="1.0" encoding="utf-8"?>
<!-- Generator: Adobe Illustrator 17.0.0, SVG Export Plug-In . SVG Version: 6.00 Build 0)  -->
<!DOCTYPE svg PUBLIC "-//W3C//DTD SVG 1.1//EN" "http://www.w3.org/Graphics/SVG/1.1/DTD/svg11.dtd">
<svg version="1.1" id="Layer_1" xmlns="http://www.w3.org/2000/svg" xmlns:xlink="http://www.w3.org/1999/xlink" x="0px" y="0px"
	 width="1000px" height="750px" viewBox="0 0 1000 750" enable-background="new 0 0 1000 750" xml:space="preserve">
<g>
	<polygon fill="#010101" points="656.891,434.525 559.111,523.086 692.56,675 790.388,586.439 	"/>
	<path fill="#010101" d="M646.653,373.185c8.344-24.434,12.324-49.136,12.324-73.47c0-93.128-58.234-180.09-151.213-212.31
		C390.526,46.837,262.509,109.046,222.035,226.24c-8.393,24.24-12.423,49.111-12.423,73.475c0,93.098,58.333,180.154,151.212,212.21
		C478.117,552.564,606.035,490.429,646.653,373.185z M505.921,446.967c-39.401,19.097-83.856,21.815-125.1,7.499
		C314.82,431.633,270.37,369.498,270.37,299.715c0-18.202,3.25-36.25,9.124-53.624c14.366-41.249,43.968-74.538,83.274-93.709
		c39.307-19.117,83.732-21.691,125.175-7.499c65.927,22.883,110.088,85.093,110.088,154.831c0,18.098-2.912,36.077-9.079,53.623
		C574.735,394.562,545.232,427.875,505.921,446.967z"/>
</g>
</svg>
