<?xml version="1.0" encoding="utf-8"?>
<!-- Generator: Adobe Illustrator 17.0.2, SVG Export Plug-In . SVG Version: 6.00 Build 0)  -->
<!DOCTYPE svg PUBLIC "-//W3C//DTD SVG 1.1//EN" "http://www.w3.org/Graphics/SVG/1.1/DTD/svg11.dtd">
<svg version="1.1" id="Layer_3" xmlns="http://www.w3.org/2000/svg" xmlns:xlink="http://www.w3.org/1999/xlink" x="0px" y="0px"
	 width="95px" height="95px" viewBox="0 0 95 95" enable-background="new 0 0 95 95" xml:space="preserve">
<g>
	<g>
		<path d="M47.5,91.998c-24.536,0-44.498-19.962-44.498-44.498S22.964,3.002,47.5,3.002c24.536,0,44.498,19.961,44.498,44.498
			S72.036,91.998,47.5,91.998z M47.5,5.002C24.067,5.002,5.002,24.067,5.002,47.5c0,23.434,19.064,42.498,42.498,42.498
			S89.998,70.933,89.998,47.5C89.998,24.067,70.933,5.002,47.5,5.002z"/>
	</g>
</g>
<g>
	<g>
		<g>
			<path d="M57.3,65.417H37.06c-2.053,0-3.723-1.729-3.723-3.853V33.437c0-2.125,1.67-3.853,3.723-3.853H57.3
				c2.053,0,3.723,1.729,3.723,3.853v28.126C61.022,63.688,59.352,65.417,57.3,65.417z M38.084,60.67h18.192V34.33H38.084V60.67z"/>
		</g>
	</g>
	<g>
		<g>
			<g>
				<path d="M31.124,62.113v-3.202l-0.264,0.058l-4.171-19.076l4.435-0.97v-4.936c0-0.292,0.027-0.577,0.066-0.858l-7.398,1.618
					c-1.055,0.231-1.974,0.906-2.522,1.854c-0.506,0.876-0.664,1.911-0.445,2.912l4.865,22.25c0.403,1.844,2.029,3.182,3.867,3.182
					c0.274,0,0.549-0.03,0.818-0.088l1.265-0.277C31.311,63.824,31.124,62.991,31.124,62.113z"/>
			</g>
		</g>
		<g>
			<g>
				<path d="M71.427,35.409l-8.26-2.304c0.041,0.289,0.07,0.582,0.07,0.882v4.999l5.006,1.396l-5.006,17.946v3.785
					c0,1.017-0.249,1.974-0.683,2.817l0.591,0.165c0.335,0.094,0.682,0.141,1.029,0.141c1.764,0,3.336-1.218,3.824-2.963
					l6.12-21.939C74.713,38.2,73.507,35.99,71.427,35.409z"/>
			</g>
		</g>
	</g>
</g>
</svg>
