<?xml version="1.0" encoding="utf-8"?>
<!-- Generator: Adobe Illustrator 17.0.0, SVG Export Plug-In . SVG Version: 6.00 Build 0)  -->
<!DOCTYPE svg PUBLIC "-//W3C//DTD SVG 1.1//EN" "http://www.w3.org/Graphics/SVG/1.1/DTD/svg11.dtd">
<svg version="1.1" id="Layer_1" xmlns="http://www.w3.org/2000/svg" xmlns:xlink="http://www.w3.org/1999/xlink" x="0px" y="0px"
	 width="1000px" height="750px" viewBox="0 0 1000 750" enable-background="new 0 0 1000 750" xml:space="preserve">
<g>
	<path d="M669.451,75H330.554c-34.368,0-62.33,28.946-62.33,64.528v470.944c0,35.577,27.962,64.528,62.33,64.528h338.897
		c34.364,0,62.326-28.951,62.326-64.528V139.528C731.775,103.946,703.815,75,669.451,75z M652.297,595.522H347.702V154.478h304.596
		L652.297,595.522z"/>
	<path d="M225.792,566.076l-4.419,0.967l-69.835-319.416l74.255-16.235v-82.65c0-4.89,0.457-9.661,1.113-14.369L103.04,161.458
		c-17.668,3.861-33.06,15.176-42.223,31.039c-8.476,14.668-11.119,31.991-7.45,48.754l81.455,372.551
		c6.74,30.871,33.971,53.272,64.745,53.272c4.593,0,9.198-0.496,13.692-1.478l21.189-4.633c-5.519-12.627-8.656-26.573-8.656-41.274
		V566.076z"/>
	<polygon points="225.792,566.076 225.792,566.076 225.793,566.076 	"/>
	<path d="M900.64,172.547l-138.308-38.58c0.695,4.837,1.173,9.743,1.173,14.774v83.704l83.822,23.382l-83.822,300.484v63.379
		c0,17.026-4.166,33.058-11.438,47.167l9.897,2.761c5.615,1.569,11.414,2.365,17.237,2.365c29.533,0,55.863-20.392,64.029-49.609
		l102.472-367.346C955.666,219.277,935.464,182.275,900.64,172.547z"/>
</g>
</svg>
