<?xml version="1.0" encoding="utf-8"?>
<!-- Generator: Adobe Illustrator 17.0.2, SVG Export Plug-In . SVG Version: 6.00 Build 0)  -->
<!DOCTYPE svg PUBLIC "-//W3C//DTD SVG 1.1//EN" "http://www.w3.org/Graphics/SVG/1.1/DTD/svg11.dtd">
<svg version="1.1" id="Layer_1" xmlns="http://www.w3.org/2000/svg" xmlns:xlink="http://www.w3.org/1999/xlink" x="0px" y="0px"
	 width="1000px" height="750px" viewBox="0 0 1000 750" enable-background="new 0 0 1000 750" xml:space="preserve">
<g>
	<path d="M733.035,326.612l-104.363-11.007c-2.51,20.44-3.872,42.281-3.872,64.978c0,18.05,0.866,35.552,2.48,52.246l106.695-14.509
		c0.114-0.012,0.228-0.03,0.341-0.046l0.067-0.009v-0.002c10.606-1.568,18.995-21.454,18.995-45.769
		C753.38,347.153,744.271,326.612,733.035,326.612z"/>
	<path d="M723.342,81.534c-8.657,0-17.114,1.924-25.298,5.561v-0.014l-0.163,0.084c-2.506,1.121-4.987,2.398-7.44,3.839
		L226.969,331.18c0.809-0.165,1.624-0.314,2.447-0.437c-19.882,6.78-34.347,27.451-34.347,51.901
		c0,22.174,11.897,41.237,28.941,49.653c-1.436-0.39-2.843-0.85-4.225-1.367L323.78,481.3c-0.249,0.566-0.494,1.136-0.721,1.717
		l-12.536,32.093c-8.819,22.579,2.335,48.032,24.913,56.851l96.161,37.561c22.579,8.819,48.032-2.335,56.851-24.913l7.736-19.806
		l193.438,93.692c3.099,1.87,6.244,3.488,9.43,4.844l0.19,0.098v-0.016c7.811,3.299,15.864,5.043,24.1,5.043
		c71.87,0,130.131-131.389,130.131-293.466S795.212,81.534,723.342,81.534z M469.099,569.704
		c-5.315,13.608-23.287,19.304-40.139,12.721l-71.775-28.036c-16.853-6.583-26.206-22.951-20.89-36.56l7.556-19.343
		c0.837-2.142,1.988-4.087,3.398-5.82l127.77,61.885L469.099,569.704z M723.342,626.048c-49.698,0-91.778-73.454-106.086-174.839
		c-3.544-22.527-5.494-47.071-5.494-72.758c0-22.465,1.494-44.052,4.238-64.183l-0.685-0.072
		c12.054-109.268,55.844-190.244,108.027-190.244c61.482,0,111.322,112.398,111.322,251.048S784.824,626.048,723.342,626.048z"/>
	<path d="M186.879,382.086c0-22.604,13.844-41.819,33.154-48.927c-7.587-15.284-19.148-25.077-32.124-25.077
		c-22.855,0-41.382,30.298-41.382,67.673s18.528,67.673,41.382,67.673c9.883,0,18.953-5.673,26.069-15.125
		C197.895,419.718,186.879,402.25,186.879,382.086z"/>
</g>
</svg>
