<?xml version="1.0" encoding="utf-8"?>
<!-- Generator: Adobe Illustrator 17.0.2, SVG Export Plug-In . SVG Version: 6.00 Build 0)  -->
<!DOCTYPE svg PUBLIC "-//W3C//DTD SVG 1.1//EN" "http://www.w3.org/Graphics/SVG/1.1/DTD/svg11.dtd">
<svg version="1.1" id="Layer_3" xmlns="http://www.w3.org/2000/svg" xmlns:xlink="http://www.w3.org/1999/xlink" x="0px" y="0px"
	 width="95px" height="95px" viewBox="0 0 95 95" enable-background="new 0 0 95 95" xml:space="preserve">
<g>
	<g>
		<path d="M47.5,91.998c-24.536,0-44.498-19.962-44.498-44.498S22.964,3.002,47.5,3.002S91.998,22.964,91.998,47.5
			S72.036,91.998,47.5,91.998z M47.5,5.002C24.067,5.002,5.002,24.067,5.002,47.5c0,23.434,19.064,42.498,42.498,42.498
			c23.434,0,42.498-19.064,42.498-42.498C89.998,24.067,70.933,5.002,47.5,5.002z"/>
	</g>
</g>
<g>
	<g>
		<path d="M57.852,26.009c-2.381,0-4.925,0.35-7.255,0.796c-1.922,0.369-3.786,0.95-5.519,1.815
			c-2.241,1.119-4.609,2.647-6.277,4.464c-0.362,0.394-0.993,1.02-0.944,1.581c0.014,0.163,0.402,0.74,0.939,1.473
			c-0.101,0.217-0.913,1.677-4.495,1.677c-3.439,0-4.054,2.039-4.054,2.039v7.257c0,0,3.046-0.92,5.298-0.92
			c5.282,0,7.872-4.021,7.872-4.021l-1.352-1.778l0,0.001c0.621-0.547,5.436-7.151,16.849-7.151c3.799,0,5.838-1.105,5.838-1.307
			v-7.27C64.753,24.666,61.623,26.009,57.852,26.009z"/>
	</g>
	<g>
		<path d="M44.484,43.48l1.244,1.637c0,0-2.74,5.097-9.644,5.097c-3.799,0-5.838,1.252-5.838,1.252v7.257
			c0,0,1.94-1.131,5.838-1.131c10.496,0,13.692-7.159,13.692-7.159l-1.207-1.585c0.031-0.037,3.472-4.061,10.345-4.061
			c3.799,0,5.838-1.252,5.838-1.252v-7.257c0,0-1.94,1.131-5.838,1.131C48.419,37.409,44.484,43.48,44.484,43.48z"/>
	</g>
	<g>
		<path d="M50.844,51.847l1.353,1.78c0,0-0.001-0.001-0.001-0.001s-4.697,8.132-16.112,8.132c-3.799,0-5.838,1.105-5.838,1.307v7.27
			c0,0,3.13-1.343,6.901-1.343c3.974,0,8.381-0.71,11.857-2.565c2.224-1.187,4.372-2.803,6.01-4.65
			c0.445-0.502,0.833-1.037,1.192-1.595c0.443-0.688-0.28-1.744-0.724-2.286c0.21-0.098,1.657-0.709,5.216-0.709
			c3.439,0,4.054-2.039,4.054-2.039v-7.257c0,0-3.046,0.92-5.298,0.92C54.173,48.808,50.844,51.847,50.844,51.847z M55.175,57.543
			l-0.001-0.001L55.175,57.543L55.175,57.543z"/>
	</g>
</g>
</svg>
