<?xml version="1.0" encoding="utf-8"?>
<!-- Generator: Adobe Illustrator 17.0.2, SVG Export Plug-In . SVG Version: 6.00 Build 0)  -->
<!DOCTYPE svg PUBLIC "-//W3C//DTD SVG 1.1//EN" "http://www.w3.org/Graphics/SVG/1.1/DTD/svg11.dtd">
<svg version="1.1" id="Layer_3" xmlns="http://www.w3.org/2000/svg" xmlns:xlink="http://www.w3.org/1999/xlink" x="0px" y="0px"
	 width="95px" height="95px" viewBox="0 0 95 95" enable-background="new 0 0 95 95" xml:space="preserve">
<g>
	<g>
		<path d="M47.5,91.998c-24.536,0-44.498-19.962-44.498-44.498S22.964,3.002,47.5,3.002S91.998,22.964,91.998,47.5
			S72.036,91.998,47.5,91.998z M47.5,5.002C24.067,5.002,5.002,24.067,5.002,47.5c0,23.434,19.064,42.498,42.498,42.498
			c23.434,0,42.498-19.064,42.498-42.498C89.998,24.067,70.933,5.002,47.5,5.002z"/>
	</g>
</g>
<g>
	<g>
		<g>
			<path d="M68.181,47.01H26.819c-1.987,0-3.604-1.617-3.604-3.604V31.536c0-1.987,1.617-3.604,3.604-3.604h41.362
				c1.987,0,3.604,1.617,3.604,3.604v11.869C71.785,45.393,70.168,47.01,68.181,47.01z M27.559,42.666h39.883v-10.39H27.559V42.666z
				"/>
		</g>
	</g>
	<g>
		<g>
			<path d="M69.613,54.137H39.374c-1.199,0-2.172-0.972-2.172-2.172c0-1.199,0.972-2.172,2.172-2.172h30.239
				c1.199,0,2.172,0.972,2.172,2.172C71.785,53.165,70.813,54.137,69.613,54.137z"/>
		</g>
	</g>
	<g>
		<g>
			<path d="M69.613,60.602H39.374c-1.199,0-2.172-0.972-2.172-2.172c0-1.199,0.972-2.172,2.172-2.172h30.239
				c1.199,0,2.172,0.972,2.172,2.172C71.785,59.63,70.813,60.602,69.613,60.602z"/>
		</g>
	</g>
	<g>
		<g>
			<path d="M69.613,67.068H39.374c-1.199,0-2.172-0.972-2.172-2.172c0-1.199,0.972-2.172,2.172-2.172h30.239
				c1.199,0,2.172,0.972,2.172,2.172C71.785,66.095,70.813,67.068,69.613,67.068z"/>
		</g>
	</g>
	<g>
		<g>
			<path d="M32.309,63.8h-6.38c-1.199,0-2.172-0.972-2.172-2.172v-9.501c0-1.199,0.972-2.172,2.172-2.172h6.38
				c1.199,0,2.172,0.972,2.172,2.172v9.501C34.481,62.827,33.509,63.8,32.309,63.8z"/>
		</g>
	</g>
</g>
</svg>
