<?xml version="1.0" encoding="utf-8"?>
<!-- Generator: Adobe Illustrator 17.0.2, SVG Export Plug-In . SVG Version: 6.00 Build 0)  -->
<!DOCTYPE svg PUBLIC "-//W3C//DTD SVG 1.1//EN" "http://www.w3.org/Graphics/SVG/1.1/DTD/svg11.dtd">
<svg version="1.1" id="Layer_3" xmlns="http://www.w3.org/2000/svg" xmlns:xlink="http://www.w3.org/1999/xlink" x="0px" y="0px"
	 width="95px" height="95px" viewBox="0 0 95 95" enable-background="new 0 0 95 95" xml:space="preserve">
<g>
	<g>
		<g>
			<path d="M47.5,91.998c-24.536,0-44.498-19.962-44.498-44.498S22.964,3.002,47.5,3.002S91.998,22.964,91.998,47.5
				S72.036,91.998,47.5,91.998z M47.5,5.002C24.066,5.002,5.002,24.066,5.002,47.5S24.066,89.998,47.5,89.998
				S89.998,70.934,89.998,47.5S70.934,5.002,47.5,5.002z"/>
		</g>
	</g>
	<g>
		<g>
			<g>
				<g>
					<path d="M68.555,31.898h-42.11c-1.199,0-2.172-0.972-2.172-2.172s0.972-2.172,2.172-2.172h42.11
						c1.199,0,2.172,0.972,2.172,2.172S69.754,31.898,68.555,31.898z"/>
				</g>
			</g>
			<g>
				<g>
					<path d="M57.398,39.363H26.445c-1.199,0-2.172-0.972-2.172-2.172s0.972-2.172,2.172-2.172h30.953
						c1.199,0,2.172,0.972,2.172,2.172C59.57,38.39,58.598,39.363,57.398,39.363z"/>
				</g>
			</g>
		</g>
		<g>
			<g>
				<path d="M69.028,46.313H25.773c-0.828,0-1.5-0.671-1.5-1.5s0.672-1.5,1.5-1.5h43.255c0.828,0,1.5,0.671,1.5,1.5
					S69.857,46.313,69.028,46.313z"/>
			</g>
		</g>
		<g>
			<g>
				<path d="M69.028,51.346H25.773c-0.828,0-1.5-0.671-1.5-1.5s0.672-1.5,1.5-1.5h43.255c0.828,0,1.5,0.671,1.5,1.5
					S69.857,51.346,69.028,51.346z"/>
			</g>
		</g>
		<g>
			<g>
				<path d="M51.028,56.379H25.773c-0.828,0-1.5-0.671-1.5-1.5s0.672-1.5,1.5-1.5h25.255c0.828,0,1.5,0.671,1.5,1.5
					S51.857,56.379,51.028,56.379z"/>
			</g>
		</g>
		<g>
			<g>
				<path d="M69.028,62.413H25.773c-0.828,0-1.5-0.671-1.5-1.5s0.672-1.5,1.5-1.5h43.255c0.828,0,1.5,0.671,1.5,1.5
					S69.857,62.413,69.028,62.413z"/>
			</g>
		</g>
		<g>
			<g>
				<path d="M65.028,67.446H25.773c-0.828,0-1.5-0.671-1.5-1.5s0.672-1.5,1.5-1.5h39.255c0.828,0,1.5,0.671,1.5,1.5
					S65.857,67.446,65.028,67.446z"/>
			</g>
		</g>
	</g>
</g>
</svg>
