<?xml version="1.0" encoding="utf-8"?>
<!-- Generator: Adobe Illustrator 18.1.1, SVG Export Plug-In . SVG Version: 6.00 Build 0)  -->
<!DOCTYPE svg PUBLIC "-//W3C//DTD SVG 1.1//EN" "http://www.w3.org/Graphics/SVG/1.1/DTD/svg11.dtd">
<svg version="1.1" id="Layer_1" xmlns="http://www.w3.org/2000/svg" xmlns:xlink="http://www.w3.org/1999/xlink" x="0px" y="0px"
	 viewBox="0 0 1000 750" enable-background="new 0 0 1000 750" xml:space="preserve">
<g>
	<g>
		<path fill="#010101" d="M802.5,367.8h-605c-29.1,0-52.7-23.6-52.7-52.7V141.5c0-29.1,23.6-52.7,52.7-52.7h604.9
			c29.1,0,52.7,23.6,52.7,52.7v173.6C855.2,344.2,831.5,367.8,802.5,367.8z M208.4,304.3h583.3v-152H208.4V304.3z"/>
	</g>
	<g>
		<path fill="#010101" d="M823.4,472.1H381.2c-17.5,0-31.8-14.2-31.8-31.8s14.2-31.8,31.8-31.8h442.2c17.5,0,31.8,14.2,31.8,31.8
			S840.9,472.1,823.4,472.1z"/>
	</g>
	<g>
		<path fill="#010101" d="M823.4,566.6H381.2c-17.5,0-31.8-14.2-31.8-31.8c0-17.5,14.2-31.8,31.8-31.8h442.2
			c17.5,0,31.8,14.2,31.8,31.8C855.2,552.4,840.9,566.6,823.4,566.6z"/>
	</g>
	<g>
		<path fill="#010101" d="M823.4,661.2H381.2c-17.5,0-31.8-14.2-31.8-31.8s14.2-31.8,31.8-31.8h442.2c17.5,0,31.8,14.2,31.8,31.8
			S840.9,661.2,823.4,661.2z"/>
	</g>
	<g>
		<path fill="#010101" d="M277.8,613.4h-93.3c-17.5,0-31.8-14.2-31.8-31.8v-139c0-17.5,14.2-31.8,31.8-31.8h93.3
			c17.5,0,31.8,14.2,31.8,31.8v139C309.6,599.2,295.4,613.4,277.8,613.4z M216.3,549.9h29.8v-75.4h-29.8V549.9z"/>
	</g>
</g>
</svg>
