<?xml version="1.0" encoding="utf-8"?>
<!-- Generator: Adobe Illustrator 17.0.0, SVG Export Plug-In . SVG Version: 6.00 Build 0)  -->
<!DOCTYPE svg PUBLIC "-//W3C//DTD SVG 1.1//EN" "http://www.w3.org/Graphics/SVG/1.1/DTD/svg11.dtd">
<svg version="1.1" id="Layer_1" xmlns="http://www.w3.org/2000/svg" xmlns:xlink="http://www.w3.org/1999/xlink" x="0px" y="0px"
	 width="1000px" height="750px" viewBox="0 0 1000 750" enable-background="new 0 0 1000 750" xml:space="preserve">
<path d="M598.578,577.279c-17.24,0-32.488-3.965-45.925-11.895c-10.091-5.918-19.349-16.107-23.034-25.925
	c-3.737-9.895-3.268-29.935-3.268-64.752V320.853h139.922V213.769H526.351V75H440.27c-3.841,30.905-10.912,56.439-21.185,76.465
	c-10.273,20.052-23.835,37.188-40.839,51.504c-16.915,14.297-44.486,25.313-68.249,32.91v84.974h82.201V531.27
	c0,27.467,2.904,48.425,8.698,62.852c5.821,14.414,16.211,28.073,31.237,40.924c15.013,12.715,33.138,22.631,54.401,29.609
	C507.77,671.556,524.111,675,551.78,675c24.336,0,46.993-2.455,67.995-7.253c20.977-4.922,44.401-13.392,70.228-25.41v-94.661
	C659.697,567.435,629.228,577.279,598.578,577.279z"/>
</svg>
