<?xml version="1.0" encoding="utf-8"?>
<!-- Generator: Adobe Illustrator 17.0.0, SVG Export Plug-In . SVG Version: 6.00 Build 0)  -->
<!DOCTYPE svg PUBLIC "-//W3C//DTD SVG 1.1//EN" "http://www.w3.org/Graphics/SVG/1.1/DTD/svg11.dtd">
<svg version="1.1" id="Layer_1" xmlns="http://www.w3.org/2000/svg" xmlns:xlink="http://www.w3.org/1999/xlink" x="0px" y="0px"
	 width="1000px" height="750px" viewBox="0 0 1000 750" enable-background="new 0 0 1000 750" xml:space="preserve">
<path d="M869.149,146.026c-27.164,12.047-56.355,20.191-86.997,23.851c31.275-18.745,55.292-48.43,66.601-83.801
	c-29.265,17.358-61.682,29.964-96.185,36.758C724.937,93.395,685.571,75,642.006,75c-83.656,0-151.475,67.819-151.475,151.467
	c0,11.873,1.339,23.432,3.921,34.519c-125.886-6.316-237.497-66.619-312.205-158.261c-13.038,22.372-20.507,48.391-20.507,76.15
	c0,52.549,26.742,98.912,67.384,126.076c-24.83-0.786-48.185-7.6-68.608-18.946c-0.011,0.633-0.013,1.266-0.013,1.904
	c0,73.39,52.212,134.611,121.506,148.525c-12.711,3.46-26.093,5.311-39.907,5.311c-9.761,0-19.249-0.95-28.498-2.716
	c19.276,60.177,75.214,103.971,141.496,105.195c-51.84,40.624-117.151,64.839-188.117,64.839c-12.226,0-24.284-0.717-36.133-2.115
	C197.884,649.925,277.503,675,363.042,675c278.611,0,430.965-230.806,430.965-430.969c0-6.567-0.148-13.099-0.438-19.595
	C823.161,203.08,848.842,176.402,869.149,146.026z"/>
</svg>
