<?xml version="1.0" encoding="utf-8"?>
<!-- Generator: Adobe Illustrator 17.0.0, SVG Export Plug-In . SVG Version: 6.00 Build 0)  -->
<!DOCTYPE svg PUBLIC "-//W3C//DTD SVG 1.1//EN" "http://www.w3.org/Graphics/SVG/1.1/DTD/svg11.dtd">
<svg version="1.1" id="Layer_1" xmlns="http://www.w3.org/2000/svg" xmlns:xlink="http://www.w3.org/1999/xlink" x="0px" y="0px"
	 width="1000px" height="750px" viewBox="0 0 1000 750" enable-background="new 0 0 1000 750" xml:space="preserve">
<g>
	<path d="M413.538,187.993l-132.47,89.147c-12.014,8.077-33.717,14.706-48.21,14.706h-55.97c-14.483,0-26.343,11.862-26.343,26.343
		v123.485c0,14.492,11.86,26.353,26.343,26.353h55.98c14.483,0,36.011,6.863,47.832,15.247l133.214,94.623
		c11.82,8.394,21.479,3.397,21.479-11.086V199.64C435.394,185.157,425.552,179.916,413.538,187.993z"/>
	<path d="M514.056,267.532c54.492,68.688,39.979,146.881-3.61,216.864c-15.746,25.292,24.13,48.423,39.826,23.253
		c56.001-89.932,64.272-187.176-3.61-272.712C528.172,211.644,495.79,244.504,514.056,267.532z"/>
	<path d="M653.156,169.074c-19.347-22.641-51.819,10.127-32.616,32.595c75.735,88.647,75.246,268.317,0,357.085
		c-19.092,22.529,13.35,55.317,32.616,32.595C745.495,482.408,746.087,277.863,653.156,169.074z"/>
	<path d="M747.555,82.345c-19.99-22.09-52.513,10.616-32.625,32.595c113.95,125.872,122.802,397.565,0,520.652
		c-20.999,21.05,11.607,53.666,32.625,32.595C888.592,526.792,878.149,226.667,747.555,82.345z"/>
</g>
</svg>
