<?xml version="1.0" encoding="utf-8"?>
<!-- Generator: Adobe Illustrator 18.1.1, SVG Export Plug-In . SVG Version: 6.00 Build 0)  -->
<!DOCTYPE svg PUBLIC "-//W3C//DTD SVG 1.1//EN" "http://www.w3.org/Graphics/SVG/1.1/DTD/svg11.dtd">
<svg version="1.1" id="Layer_1" xmlns="http://www.w3.org/2000/svg" xmlns:xlink="http://www.w3.org/1999/xlink" x="0px" y="0px"
	 viewBox="0 0 1000 750" enable-background="new 0 0 1000 750" xml:space="preserve">
<g>
	<g>
		<path fill="#010101" d="M500,235.5c-94,0-170.4,76.5-170.4,170.5S406.1,576.4,500,576.4S670.4,499.9,670.4,406
			S594,235.5,500,235.5z M500,516.3c-60.8,0-110.3-49.5-110.3-110.3S439.2,295.7,500,295.7S610.3,345.2,610.3,406
			S560.8,516.3,500,516.3z"/>
	</g>
	<g>
		<path fill="#010101" d="M530.5,322.1c-15.2-6.7-33,0.3-39.6,15.5c-6.6,15.2,0.3,33,15.5,39.6c0.2,0.1,23,10.9,20.6,28.3
			c-2.2,16.5,9.3,31.6,25.8,33.8c1.4,0.2,2.7,0.3,4.1,0.3c14.8,0,27.7-11,29.8-26C593.4,363.7,554.6,332.6,530.5,322.1z"/>
	</g>
	<g>
		<path fill="#010101" d="M504.3,435.4c-7.9,0-15.6,3.2-21.3,8.8c-5.6,5.6-8.8,13.3-8.8,21.3c0,7.9,3.2,15.6,8.8,21.2
			c5.6,5.6,13.4,8.9,21.3,8.9c7.9,0,15.6-3.2,21.3-8.9c5.6-5.6,8.8-13.3,8.8-21.2s-3.2-15.7-8.8-21.3
			C520,438.5,512.3,435.4,504.3,435.4z"/>
	</g>
	<g>
		<path fill="#010101" d="M811.3,227.2H697.6l-31.7-115.5c-3.6-13.1-15.5-22.1-29-22.1H363.1c-13.5,0-25.4,9-29,22.1l-31.7,115.5
			H188.7c-16.6,0-30.1,13.5-30.1,30.1v373c0,16.6,13.5,30.1,30.1,30.1h622.6c16.6,0,30.1-13.5,30.1-30.1v-373
			C841.4,240.7,827.9,227.2,811.3,227.2z M781.2,600.3H218.8v-313h106.5c13.5,0,25.4-9,29-22.1L386,149.7h228l31.7,115.5
			c3.6,13.1,15.5,22.1,29,22.1h106.6L781.2,600.3L781.2,600.3z"/>
	</g>
</g>
</svg>
