<?xml version="1.0" encoding="utf-8"?>
<!-- Generator: Adobe Illustrator 17.0.0, SVG Export Plug-In . SVG Version: 6.00 Build 0)  -->
<!DOCTYPE svg PUBLIC "-//W3C//DTD SVG 1.1//EN" "http://www.w3.org/Graphics/SVG/1.1/DTD/svg11.dtd">
<svg version="1.1" id="Layer_1" xmlns="http://www.w3.org/2000/svg" xmlns:xlink="http://www.w3.org/1999/xlink" x="0px" y="0px"
	 width="1000px" height="750px" viewBox="0 0 1000 750" enable-background="new 0 0 1000 750" xml:space="preserve">
<g>
	<path d="M799.764,671.246c-0.933-1.692-2.039-3.312-2.775-5.086c-30.345-73.111-60.629-146.248-91.058-219.324
		c-1.489-3.575-3.703-7.142-6.425-9.869c-96.904-97.077-193.909-194.053-290.905-291.038c-1.495-1.495-3.063-2.917-3.91-3.721
		c-46.088,46.087-91.761,91.759-137.566,137.563c0.702,0.753,1.751,1.952,2.875,3.076c97.552,97.561,195.1,195.127,292.733,292.608
		c2.315,2.311,5.403,4.119,8.453,5.386c68.111,28.306,136.275,56.485,204.403,84.751c6.942,2.881,13.718,6.162,20.571,9.258
		C799.163,675.45,800.364,674.248,799.764,671.246z M733.118,593.239c-4.676,5.204-9.966,9.854-14.678,15.028
		c-2.37,2.603-4.313,2.419-7.263,1.188c-41.863-17.467-83.752-34.869-125.721-52.077c-3.972-1.628-5.471-3.431-3.888-7.477
		c2.904-7.424,5.058-15.236,8.758-22.234c8.002-15.134,21.349-20.975,38.22-17.749c2.329,0.445,4.64,0.985,6.324,1.345
		c0-7.983-0.534-15.496,0.137-22.899c0.806-8.881,5.554-16.235,13.334-20.29c8.956-4.667,18.598-8.067,28.109-11.563
		c1.239-0.455,4.478,1.373,5.099,2.853c17.851,42.565,35.522,85.207,53.011,127.922
		C735.204,588.859,734.351,591.867,733.118,593.239z"/>
	<path d="M245.281,223.476c40.23-40.23,80.167-80.165,120.5-120.499c-28.109-25.258-60.428-34.504-96.681-23.239
		c-37.351,11.605-60.293,37.825-67.317,76.329c-5.936,32.539,3.909,60.904,26.254,84.652l0,0v0
		C233.8,234.957,239.534,229.223,245.281,223.476z"/>
</g>
</svg>
